<?xml version="1.0" encoding="UTF-8" standalone="no"?>
<!DOCTYPE svg PUBLIC "-//W3C//DTD SVG 1.1//EN"
 "http://www.w3.org/Graphics/SVG/1.1/DTD/svg11.dtd">
<!-- Generated by graphviz version 2.43.0 (0)
 -->
<!-- Title: G Pages: 1 -->
<svg width="1479pt" height="659pt"
 viewBox="0.00 0.00 1479.00 659.00" xmlns="http://www.w3.org/2000/svg" xmlns:xlink="http://www.w3.org/1999/xlink">
<g id="graph0" class="graph" transform="scale(1 1) rotate(0) translate(4 655)">
<title>G</title>
<polygon fill="white" stroke="transparent" points="-4,4 -4,-655 1475,-655 1475,4 -4,4"/>
<g id="clust1" class="cluster">
<title>cluster_module.alb</title>
<polygon fill="none" stroke="black" points="750.5,-8 750.5,-137 1409.5,-137 1409.5,-8 750.5,-8"/>
<text text-anchor="middle" x="1080" y="-121.8" font-family="sans-serif" font-size="14.00">module.alb</text>
</g>
<g id="clust2" class="cluster">
<title>cluster_module.compute</title>
<polygon fill="none" stroke="black" points="455,-220 455,-349 965.5,-349 965.5,-220 455,-220"/>
<text text-anchor="middle" x="710.25" y="-333.8" font-family="sans-serif" font-size="14.00">module.compute</text>
</g>
<g id="clust3" class="cluster">
<title>cluster_module.networking</title>
<polygon fill="none" stroke="black" points="8,-440 8,-643 1463,-643 1463,-440 8,-440"/>
<text text-anchor="middle" x="735.5" y="-627.8" font-family="sans-serif" font-size="14.00">module.networking</text>
</g>
<g id="clust4" class="cluster">
<title>cluster_module.rds&#45;mysql</title>
<polygon fill="none" stroke="black" points="717,-357 717,-432 1365.5,-432 1365.5,-357 717,-357"/>
<text text-anchor="middle" x="1041.25" y="-416.8" font-family="sans-serif" font-size="14.00">module.rds&#45;mysql</text>
</g>
<g id="clust5" class="cluster">
<title>cluster_module.sg</title>
<polygon fill="none" stroke="black" points="163,-153 163,-390 415,-390 415,-153 163,-153"/>
<text text-anchor="middle" x="289" y="-374.8" font-family="sans-serif" font-size="14.00">module.sg</text>
</g>
<!-- module.alb.aws_lb.wp&#45;alb -->
<g id="node1" class="node">
<title>module.alb.aws_lb.wp&#45;alb</title>
<polygon fill="none" stroke="black" points="920.5,-52 813.5,-52 813.5,-16 920.5,-16 920.5,-52"/>
<text text-anchor="middle" x="867" y="-30.3" font-family="sans-serif" font-size="14.00">aws_lb.wp&#45;alb</text>
</g>
<!-- module.networking.aws_subnet.public_subnet -->
<g id="node16" class="node">
<title>module.networking.aws_subnet.public_subnet</title>
<polygon fill="none" stroke="black" points="384.5,-484 193.5,-484 193.5,-448 384.5,-448 384.5,-484"/>
<text text-anchor="middle" x="289" y="-462.3" font-family="sans-serif" font-size="14.00">aws_subnet.public_subnet</text>
</g>
<!-- module.alb.aws_lb.wp&#45;alb&#45;&gt;module.networking.aws_subnet.public_subnet -->
<g id="edge1" class="edge">
<title>module.alb.aws_lb.wp&#45;alb&#45;&gt;module.networking.aws_subnet.public_subnet</title>
<path fill="none" stroke="black" d="M813.13,-32.61C775.36,-33.76 724.46,-39.8 685,-61 663.93,-72.32 667.69,-86.08 649,-101 567.04,-166.41 502.97,-129.98 443,-216 397.2,-281.69 460.36,-328 415,-394 399.85,-416.05 375.58,-432.23 352.43,-443.61"/>
<polygon fill="black" stroke="black" points="350.87,-440.47 343.3,-447.88 353.84,-446.81 350.87,-440.47"/>
</g>
<!-- module.sg.aws_security_group.wp&#45;alb&#45;sg -->
<g id="node22" class="node">
<title>module.sg.aws_security_group.wp&#45;alb&#45;sg</title>
<polygon fill="none" stroke="black" points="395.5,-197 182.5,-197 182.5,-161 395.5,-161 395.5,-197"/>
<text text-anchor="middle" x="289" y="-175.3" font-family="sans-serif" font-size="14.00">aws_security_group.wp&#45;alb&#45;sg</text>
</g>
<!-- module.alb.aws_lb.wp&#45;alb&#45;&gt;module.sg.aws_security_group.wp&#45;alb&#45;sg -->
<g id="edge2" class="edge">
<title>module.alb.aws_lb.wp&#45;alb&#45;&gt;module.sg.aws_security_group.wp&#45;alb&#45;sg</title>
<path fill="none" stroke="black" d="M813.18,-39.35C732.06,-48.53 572.6,-70.45 443,-112 405.62,-123.98 365,-142.02 335.01,-156.37"/>
<polygon fill="black" stroke="black" points="333.15,-153.38 325.67,-160.88 336.19,-159.68 333.15,-153.38"/>
</g>
<!-- module.alb.aws_lb_listener.wp&#45;alb&#45;listener -->
<g id="node2" class="node">
<title>module.alb.aws_lb_listener.wp&#45;alb&#45;listener</title>
<polygon fill="none" stroke="black" points="1379,-52 1161,-52 1161,-16 1379,-16 1379,-52"/>
<text text-anchor="middle" x="1270" y="-30.3" font-family="sans-serif" font-size="14.00">aws_lb_listener.wp&#45;alb&#45;listener</text>
</g>
<!-- module.alb.aws_lb_listener.wp&#45;alb&#45;listener&#45;&gt;module.alb.aws_lb.wp&#45;alb -->
<g id="edge3" class="edge">
<title>module.alb.aws_lb_listener.wp&#45;alb&#45;listener&#45;&gt;module.alb.aws_lb.wp&#45;alb</title>
<path fill="none" stroke="black" d="M1160.75,-34C1087.18,-34 992.43,-34 930.96,-34"/>
<polygon fill="black" stroke="black" points="930.64,-30.5 920.64,-34 930.64,-37.5 930.64,-30.5"/>
</g>
<!-- module.alb.aws_lb_target_group.wp&#45;alb&#45;tg -->
<g id="node3" class="node">
<title>module.alb.aws_lb_target_group.wp&#45;alb&#45;tg</title>
<polygon fill="none" stroke="black" points="975.5,-106 758.5,-106 758.5,-70 975.5,-70 975.5,-106"/>
<text text-anchor="middle" x="867" y="-84.3" font-family="sans-serif" font-size="14.00">aws_lb_target_group.wp&#45;alb&#45;tg</text>
</g>
<!-- module.alb.aws_lb_listener.wp&#45;alb&#45;listener&#45;&gt;module.alb.aws_lb_target_group.wp&#45;alb&#45;tg -->
<g id="edge4" class="edge">
<title>module.alb.aws_lb_listener.wp&#45;alb&#45;listener&#45;&gt;module.alb.aws_lb_target_group.wp&#45;alb&#45;tg</title>
<path fill="none" stroke="black" d="M1160.75,-48.58C1106.7,-55.86 1041.22,-64.67 985.9,-72.12"/>
<polygon fill="black" stroke="black" points="985.14,-68.69 975.7,-73.5 986.07,-75.63 985.14,-68.69"/>
</g>
<!-- module.networking.aws_vpc.wp&#45;vpc -->
<g id="node17" class="node">
<title>module.networking.aws_vpc.wp&#45;vpc</title>
<polygon fill="none" stroke="black" points="135,-484 16,-484 16,-448 135,-448 135,-484"/>
<text text-anchor="middle" x="75.5" y="-462.3" font-family="sans-serif" font-size="14.00">aws_vpc.wp&#45;vpc</text>
</g>
<!-- module.alb.aws_lb_target_group.wp&#45;alb&#45;tg&#45;&gt;module.networking.aws_vpc.wp&#45;vpc -->
<g id="edge5" class="edge">
<title>module.alb.aws_lb_target_group.wp&#45;alb&#45;tg&#45;&gt;module.networking.aws_vpc.wp&#45;vpc</title>
<path fill="none" stroke="black" d="M758.44,-82.87C584.17,-76.88 250.76,-75.75 163,-149 118.11,-186.46 89.65,-367.17 80.09,-437.71"/>
<polygon fill="black" stroke="black" points="76.61,-437.29 78.77,-447.67 83.55,-438.21 76.61,-437.29"/>
</g>
<!-- module.alb.aws_lb_target_group_attachment.test -->
<g id="node4" class="node">
<title>module.alb.aws_lb_target_group_attachment.test</title>
<polygon fill="none" stroke="black" points="1401.5,-106 1138.5,-106 1138.5,-70 1401.5,-70 1401.5,-106"/>
<text text-anchor="middle" x="1270" y="-84.3" font-family="sans-serif" font-size="14.00">aws_lb_target_group_attachment.test</text>
</g>
<!-- module.alb.aws_lb_target_group_attachment.test&#45;&gt;module.alb.aws_lb_target_group.wp&#45;alb&#45;tg -->
<g id="edge6" class="edge">
<title>module.alb.aws_lb_target_group_attachment.test&#45;&gt;module.alb.aws_lb_target_group.wp&#45;alb&#45;tg</title>
<path fill="none" stroke="black" d="M1138.25,-88C1089.18,-88 1033.73,-88 985.89,-88"/>
<polygon fill="black" stroke="black" points="985.8,-84.5 975.8,-88 985.8,-91.5 985.8,-84.5"/>
</g>
<!-- module.compute.aws_instance.wp&#45;servers -->
<g id="node6" class="node">
<title>module.compute.aws_instance.wp&#45;servers</title>
<polygon fill="none" stroke="black" points="957.5,-318 776.5,-318 776.5,-282 957.5,-282 957.5,-318"/>
<text text-anchor="middle" x="867" y="-296.3" font-family="sans-serif" font-size="14.00">aws_instance.wp&#45;servers</text>
</g>
<!-- module.alb.aws_lb_target_group_attachment.test&#45;&gt;module.compute.aws_instance.wp&#45;servers -->
<g id="edge7" class="edge">
<title>module.alb.aws_lb_target_group_attachment.test&#45;&gt;module.compute.aws_instance.wp&#45;servers</title>
<path fill="none" stroke="black" d="M1253.86,-106.22C1221,-144.37 1138.85,-232.48 1049,-273 1023.85,-284.34 994.94,-291.1 967.71,-295.07"/>
<polygon fill="black" stroke="black" points="967.2,-291.6 957.76,-296.41 968.14,-298.54 967.2,-291.6"/>
</g>
<!-- module.compute.aws_instance.jumpbox -->
<g id="node5" class="node">
<title>module.compute.aws_instance.jumpbox</title>
<polygon fill="none" stroke="black" points="629,-318 463,-318 463,-282 629,-282 629,-318"/>
<text text-anchor="middle" x="546" y="-296.3" font-family="sans-serif" font-size="14.00">aws_instance.jumpbox</text>
</g>
<!-- module.compute.aws_instance.jumpbox&#45;&gt;module.networking.aws_subnet.public_subnet -->
<g id="edge8" class="edge">
<title>module.compute.aws_instance.jumpbox&#45;&gt;module.networking.aws_subnet.public_subnet</title>
<path fill="none" stroke="black" d="M521.56,-318.08C495.91,-337.59 453.35,-369.19 415,-394 388.15,-411.37 356.99,-429.33 332.49,-442.96"/>
<polygon fill="black" stroke="black" points="330.51,-440.06 323.46,-447.96 333.9,-446.18 330.51,-440.06"/>
</g>
<!-- module.sg.aws_security_group.jumpbox&#45;sg -->
<g id="node20" class="node">
<title>module.sg.aws_security_group.jumpbox&#45;sg</title>
<polygon fill="none" stroke="black" points="402.5,-359 175.5,-359 175.5,-323 402.5,-323 402.5,-359"/>
<text text-anchor="middle" x="289" y="-337.3" font-family="sans-serif" font-size="14.00">aws_security_group.jumpbox&#45;sg</text>
</g>
<!-- module.compute.aws_instance.jumpbox&#45;&gt;module.sg.aws_security_group.jumpbox&#45;sg -->
<g id="edge9" class="edge">
<title>module.compute.aws_instance.jumpbox&#45;&gt;module.sg.aws_security_group.jumpbox&#45;sg</title>
<path fill="none" stroke="black" d="M462.91,-313.2C446.73,-315.8 429.42,-318.58 412.23,-321.35"/>
<polygon fill="black" stroke="black" points="411.46,-317.93 402.14,-322.97 412.57,-324.84 411.46,-317.93"/>
</g>
<!-- module.compute.aws_instance.wp&#45;servers&#45;&gt;module.compute.aws_instance.jumpbox -->
<g id="edge10" class="edge">
<title>module.compute.aws_instance.wp&#45;servers&#45;&gt;module.compute.aws_instance.jumpbox</title>
<path fill="none" stroke="black" d="M776.29,-300C733.56,-300 682.49,-300 639.41,-300"/>
<polygon fill="black" stroke="black" points="639.21,-296.5 629.21,-300 639.21,-303.5 639.21,-296.5"/>
</g>
<!-- module.networking.aws_subnet.private_subnet -->
<g id="node15" class="node">
<title>module.networking.aws_subnet.private_subnet</title>
<polygon fill="none" stroke="black" points="644.5,-484 447.5,-484 447.5,-448 644.5,-448 644.5,-484"/>
<text text-anchor="middle" x="546" y="-462.3" font-family="sans-serif" font-size="14.00">aws_subnet.private_subnet</text>
</g>
<!-- module.compute.aws_instance.wp&#45;servers&#45;&gt;module.networking.aws_subnet.private_subnet -->
<g id="edge11" class="edge">
<title>module.compute.aws_instance.wp&#45;servers&#45;&gt;module.networking.aws_subnet.private_subnet</title>
<path fill="none" stroke="black" d="M778.54,-318.04C747.91,-326.29 713.96,-337.72 685,-353 640.88,-376.28 597.64,-415.01 571.64,-440.52"/>
<polygon fill="black" stroke="black" points="569.09,-438.13 564.47,-447.67 574.02,-443.09 569.09,-438.13"/>
</g>
<!-- module.sg.aws_security_group.wp&#45;server&#45;sg -->
<g id="node23" class="node">
<title>module.sg.aws_security_group.wp&#45;server&#45;sg</title>
<polygon fill="none" stroke="black" points="407,-305 171,-305 171,-269 407,-269 407,-305"/>
<text text-anchor="middle" x="289" y="-283.3" font-family="sans-serif" font-size="14.00">aws_security_group.wp&#45;server&#45;sg</text>
</g>
<!-- module.compute.aws_instance.wp&#45;servers&#45;&gt;module.sg.aws_security_group.wp&#45;server&#45;sg -->
<g id="edge12" class="edge">
<title>module.compute.aws_instance.wp&#45;servers&#45;&gt;module.sg.aws_security_group.wp&#45;server&#45;sg</title>
<path fill="none" stroke="black" d="M776.49,-286.34C737.44,-281.03 691.06,-275.61 649,-273 557.62,-267.34 534.46,-268.82 443,-273 434.67,-273.38 426.09,-273.88 417.45,-274.45"/>
<polygon fill="black" stroke="black" points="417.02,-270.98 407.29,-275.17 417.51,-277.96 417.02,-270.98"/>
</g>
<!-- module.compute.aws_key_pair.key&#45;wp -->
<g id="node7" class="node">
<title>module.compute.aws_key_pair.key&#45;wp</title>
<polygon fill="none" stroke="black" points="942,-264 792,-264 792,-228 942,-228 942,-264"/>
<text text-anchor="middle" x="867" y="-242.3" font-family="sans-serif" font-size="14.00">aws_key_pair.key&#45;wp</text>
</g>
<!-- module.networking.aws_eip.nat_eip -->
<g id="node8" class="node">
<title>module.networking.aws_eip.nat_eip</title>
<polygon fill="none" stroke="black" points="349,-612 229,-612 229,-576 349,-576 349,-612"/>
<text text-anchor="middle" x="289" y="-590.3" font-family="sans-serif" font-size="14.00">aws_eip.nat_eip</text>
</g>
<!-- module.networking.aws_internet_gateway.igw -->
<g id="node9" class="node">
<title>module.networking.aws_internet_gateway.igw</title>
<polygon fill="none" stroke="black" points="384,-558 194,-558 194,-522 384,-522 384,-558"/>
<text text-anchor="middle" x="289" y="-536.3" font-family="sans-serif" font-size="14.00">aws_internet_gateway.igw</text>
</g>
<!-- module.networking.aws_internet_gateway.igw&#45;&gt;module.networking.aws_vpc.wp&#45;vpc -->
<g id="edge13" class="edge">
<title>module.networking.aws_internet_gateway.igw&#45;&gt;module.networking.aws_vpc.wp&#45;vpc</title>
<path fill="none" stroke="black" d="M207.58,-521.96C192.6,-517.89 177.2,-513.2 163,-508 148.35,-502.63 132.88,-495.59 119.12,-488.81"/>
<polygon fill="black" stroke="black" points="120.42,-485.54 109.91,-484.18 117.28,-491.79 120.42,-485.54"/>
</g>
<!-- module.networking.aws_nat_gateway.wp&#45;nat -->
<g id="node10" class="node">
<title>module.networking.aws_nat_gateway.wp&#45;nat</title>
<polygon fill="none" stroke="black" points="635.5,-612 456.5,-612 456.5,-576 635.5,-576 635.5,-612"/>
<text text-anchor="middle" x="546" y="-590.3" font-family="sans-serif" font-size="14.00">aws_nat_gateway.wp&#45;nat</text>
</g>
<!-- module.networking.aws_nat_gateway.wp&#45;nat&#45;&gt;module.networking.aws_eip.nat_eip -->
<g id="edge14" class="edge">
<title>module.networking.aws_nat_gateway.wp&#45;nat&#45;&gt;module.networking.aws_eip.nat_eip</title>
<path fill="none" stroke="black" d="M456.17,-594C424.54,-594 389.4,-594 359.62,-594"/>
<polygon fill="black" stroke="black" points="359.32,-590.5 349.32,-594 359.32,-597.5 359.32,-590.5"/>
</g>
<!-- module.networking.aws_nat_gateway.wp&#45;nat&#45;&gt;module.networking.aws_internet_gateway.igw -->
<g id="edge15" class="edge">
<title>module.networking.aws_nat_gateway.wp&#45;nat&#45;&gt;module.networking.aws_internet_gateway.igw</title>
<path fill="none" stroke="black" d="M459.73,-575.94C435.81,-570.88 409.65,-565.34 385.19,-560.16"/>
<polygon fill="black" stroke="black" points="385.69,-556.69 375.19,-558.04 384.24,-563.54 385.69,-556.69"/>
</g>
<!-- module.networking.aws_nat_gateway.wp&#45;nat&#45;&gt;module.networking.aws_subnet.public_subnet -->
<g id="edge16" class="edge">
<title>module.networking.aws_nat_gateway.wp&#45;nat&#45;&gt;module.networking.aws_subnet.public_subnet</title>
<path fill="none" stroke="black" d="M456.41,-575.8C451.66,-573.24 447.15,-570.32 443,-567 421.9,-550.09 435.22,-530.95 415,-513 403.27,-502.58 389,-494.39 374.36,-487.97"/>
<polygon fill="black" stroke="black" points="375.29,-484.57 364.71,-484 372.63,-491.04 375.29,-484.57"/>
</g>
<!-- module.networking.aws_route_table.wp&#45;private&#45;rt -->
<g id="node11" class="node">
<title>module.networking.aws_route_table.wp&#45;private&#45;rt</title>
<polygon fill="none" stroke="black" points="973,-607 761,-607 761,-571 973,-571 973,-607"/>
<text text-anchor="middle" x="867" y="-585.3" font-family="sans-serif" font-size="14.00">aws_route_table.wp&#45;private&#45;rt</text>
</g>
<!-- module.networking.aws_route_table.wp&#45;private&#45;rt&#45;&gt;module.networking.aws_nat_gateway.wp&#45;nat -->
<g id="edge17" class="edge">
<title>module.networking.aws_route_table.wp&#45;private&#45;rt&#45;&gt;module.networking.aws_nat_gateway.wp&#45;nat</title>
<path fill="none" stroke="black" d="M760.66,-590.65C723.67,-591.23 682.27,-591.88 645.83,-592.45"/>
<polygon fill="black" stroke="black" points="645.64,-588.95 635.69,-592.61 645.75,-595.95 645.64,-588.95"/>
</g>
<!-- module.networking.aws_route_table.wp&#45;public&#45;rt -->
<g id="node12" class="node">
<title>module.networking.aws_route_table.wp&#45;public&#45;rt</title>
<polygon fill="none" stroke="black" points="649,-558 443,-558 443,-522 649,-522 649,-558"/>
<text text-anchor="middle" x="546" y="-536.3" font-family="sans-serif" font-size="14.00">aws_route_table.wp&#45;public&#45;rt</text>
</g>
<!-- module.networking.aws_route_table.wp&#45;public&#45;rt&#45;&gt;module.networking.aws_internet_gateway.igw -->
<g id="edge18" class="edge">
<title>module.networking.aws_route_table.wp&#45;public&#45;rt&#45;&gt;module.networking.aws_internet_gateway.igw</title>
<path fill="none" stroke="black" d="M442.75,-540C426.84,-540 410.38,-540 394.42,-540"/>
<polygon fill="black" stroke="black" points="394.01,-536.5 384.01,-540 394.01,-543.5 394.01,-536.5"/>
</g>
<!-- module.networking.aws_route_table_association.wp&#45;private&#45;rt&#45;association -->
<g id="node13" class="node">
<title>module.networking.aws_route_table_association.wp&#45;private&#45;rt&#45;association</title>
<polygon fill="none" stroke="black" points="1455,-548 1085,-548 1085,-512 1455,-512 1455,-548"/>
<text text-anchor="middle" x="1270" y="-526.3" font-family="sans-serif" font-size="14.00">aws_route_table_association.wp&#45;private&#45;rt&#45;association</text>
</g>
<!-- module.networking.aws_route_table_association.wp&#45;private&#45;rt&#45;association&#45;&gt;module.networking.aws_route_table.wp&#45;private&#45;rt -->
<g id="edge19" class="edge">
<title>module.networking.aws_route_table_association.wp&#45;private&#45;rt&#45;association&#45;&gt;module.networking.aws_route_table.wp&#45;private&#45;rt</title>
<path fill="none" stroke="black" d="M1146.51,-548.02C1094.58,-555.66 1034.37,-564.52 983.25,-572.04"/>
<polygon fill="black" stroke="black" points="982.54,-568.61 973.16,-573.53 983.56,-575.53 982.54,-568.61"/>
</g>
<!-- module.networking.aws_route_table_association.wp&#45;private&#45;rt&#45;association&#45;&gt;module.networking.aws_subnet.private_subnet -->
<g id="edge20" class="edge">
<title>module.networking.aws_route_table_association.wp&#45;private&#45;rt&#45;association&#45;&gt;module.networking.aws_subnet.private_subnet</title>
<path fill="none" stroke="black" d="M1152.74,-511.97C1119.31,-507.24 1082.76,-502.48 1049,-499 913.56,-485.03 756.91,-475.83 655.12,-470.78"/>
<polygon fill="black" stroke="black" points="654.99,-467.27 644.83,-470.28 654.64,-474.26 654.99,-467.27"/>
</g>
<!-- module.networking.aws_route_table_association.wp&#45;public&#45;rt&#45;association -->
<g id="node14" class="node">
<title>module.networking.aws_route_table_association.wp&#45;public&#45;rt&#45;association</title>
<polygon fill="none" stroke="black" points="1049,-544 685,-544 685,-508 1049,-508 1049,-544"/>
<text text-anchor="middle" x="867" y="-522.3" font-family="sans-serif" font-size="14.00">aws_route_table_association.wp&#45;public&#45;rt&#45;association</text>
</g>
<!-- module.networking.aws_route_table_association.wp&#45;public&#45;rt&#45;association&#45;&gt;module.networking.aws_route_table.wp&#45;public&#45;rt -->
<g id="edge21" class="edge">
<title>module.networking.aws_route_table_association.wp&#45;public&#45;rt&#45;association&#45;&gt;module.networking.aws_route_table.wp&#45;public&#45;rt</title>
<path fill="none" stroke="black" d="M684.6,-533.96C676.02,-534.34 667.53,-534.71 659.23,-535.07"/>
<polygon fill="black" stroke="black" points="659.04,-531.58 649.2,-535.51 659.35,-538.57 659.04,-531.58"/>
</g>
<!-- module.networking.aws_route_table_association.wp&#45;public&#45;rt&#45;association&#45;&gt;module.networking.aws_subnet.public_subnet -->
<g id="edge22" class="edge">
<title>module.networking.aws_route_table_association.wp&#45;public&#45;rt&#45;association&#45;&gt;module.networking.aws_subnet.public_subnet</title>
<path fill="none" stroke="black" d="M684.88,-513.61C592.02,-506.91 488.99,-498.84 443,-493 427.05,-490.97 410.22,-488.43 393.8,-485.71"/>
<polygon fill="black" stroke="black" points="394.08,-482.21 383.64,-484 392.92,-489.11 394.08,-482.21"/>
</g>
<!-- module.networking.aws_subnet.private_subnet&#45;&gt;module.networking.aws_vpc.wp&#45;vpc -->
<g id="edge23" class="edge">
<title>module.networking.aws_subnet.private_subnet&#45;&gt;module.networking.aws_vpc.wp&#45;vpc</title>
<path fill="none" stroke="black" d="M471.16,-484.07C452.92,-487.77 433.34,-491.12 415,-493 303.59,-504.45 273.72,-509.88 163,-493 153.86,-491.61 144.36,-489.43 135.15,-486.91"/>
<polygon fill="black" stroke="black" points="135.87,-483.47 125.3,-484.05 133.93,-490.19 135.87,-483.47"/>
</g>
<!-- module.networking.aws_subnet.public_subnet&#45;&gt;module.networking.aws_vpc.wp&#45;vpc -->
<g id="edge24" class="edge">
<title>module.networking.aws_subnet.public_subnet&#45;&gt;module.networking.aws_vpc.wp&#45;vpc</title>
<path fill="none" stroke="black" d="M193.38,-466C177.3,-466 160.87,-466 145.6,-466"/>
<polygon fill="black" stroke="black" points="145.23,-462.5 135.23,-466 145.23,-469.5 145.23,-462.5"/>
</g>
<!-- module.rds&#45;mysql.aws_db_instance.wp&#45;rds -->
<g id="node18" class="node">
<title>module.rds&#45;mysql.aws_db_instance.wp&#45;rds</title>
<polygon fill="none" stroke="black" points="1357.5,-401 1182.5,-401 1182.5,-365 1357.5,-365 1357.5,-401"/>
<text text-anchor="middle" x="1270" y="-379.3" font-family="sans-serif" font-size="14.00">aws_db_instance.wp&#45;rds</text>
</g>
<!-- module.rds&#45;mysql.aws_db_subnet_group.rds_subnet_group -->
<g id="node19" class="node">
<title>module.rds&#45;mysql.aws_db_subnet_group.rds_subnet_group</title>
<polygon fill="none" stroke="black" points="1009,-401 725,-401 725,-365 1009,-365 1009,-401"/>
<text text-anchor="middle" x="867" y="-379.3" font-family="sans-serif" font-size="14.00">aws_db_subnet_group.rds_subnet_group</text>
</g>
<!-- module.rds&#45;mysql.aws_db_instance.wp&#45;rds&#45;&gt;module.rds&#45;mysql.aws_db_subnet_group.rds_subnet_group -->
<g id="edge25" class="edge">
<title>module.rds&#45;mysql.aws_db_instance.wp&#45;rds&#45;&gt;module.rds&#45;mysql.aws_db_subnet_group.rds_subnet_group</title>
<path fill="none" stroke="black" d="M1182.48,-383C1134.91,-383 1074.51,-383 1019.39,-383"/>
<polygon fill="black" stroke="black" points="1019.16,-379.5 1009.16,-383 1019.16,-386.5 1019.16,-379.5"/>
</g>
<!-- module.sg.aws_security_group.rds_sg -->
<g id="node21" class="node">
<title>module.sg.aws_security_group.rds_sg</title>
<polygon fill="none" stroke="black" points="384.5,-251 193.5,-251 193.5,-215 384.5,-215 384.5,-251"/>
<text text-anchor="middle" x="289" y="-229.3" font-family="sans-serif" font-size="14.00">aws_security_group.rds_sg</text>
</g>
<!-- module.rds&#45;mysql.aws_db_instance.wp&#45;rds&#45;&gt;module.sg.aws_security_group.rds_sg -->
<g id="edge26" class="edge">
<title>module.rds&#45;mysql.aws_db_instance.wp&#45;rds&#45;&gt;module.sg.aws_security_group.rds_sg</title>
<path fill="none" stroke="black" d="M1253.09,-364.72C1219.71,-327.95 1138.08,-245.98 1049,-216 793.74,-130.09 711.92,-201.11 443,-216 427.31,-216.87 410.76,-218.24 394.56,-219.83"/>
<polygon fill="black" stroke="black" points="394.13,-216.35 384.54,-220.84 394.84,-223.32 394.13,-216.35"/>
</g>
<!-- module.rds&#45;mysql.aws_db_subnet_group.rds_subnet_group&#45;&gt;module.networking.aws_subnet.private_subnet -->
<g id="edge27" class="edge">
<title>module.rds&#45;mysql.aws_db_subnet_group.rds_subnet_group&#45;&gt;module.networking.aws_subnet.private_subnet</title>
<path fill="none" stroke="black" d="M796.78,-401.01C746.6,-414.07 678.64,-431.75 626.28,-445.37"/>
<polygon fill="black" stroke="black" points="625.15,-442.05 616.36,-447.95 626.92,-448.82 625.15,-442.05"/>
</g>
<!-- module.sg.aws_security_group.jumpbox&#45;sg&#45;&gt;module.networking.aws_vpc.wp&#45;vpc -->
<g id="edge28" class="edge">
<title>module.sg.aws_security_group.jumpbox&#45;sg&#45;&gt;module.networking.aws_vpc.wp&#45;vpc</title>
<path fill="none" stroke="black" d="M257.25,-359.18C219.89,-381.26 156.8,-418.54 115.91,-442.71"/>
<polygon fill="black" stroke="black" points="114.12,-439.7 107.29,-447.8 117.68,-445.73 114.12,-439.7"/>
</g>
<!-- module.sg.aws_security_group.rds_sg&#45;&gt;module.networking.aws_vpc.wp&#45;vpc -->
<g id="edge29" class="edge">
<title>module.sg.aws_security_group.rds_sg&#45;&gt;module.networking.aws_vpc.wp&#45;vpc</title>
<path fill="none" stroke="black" d="M193.3,-243.06C182.31,-247.13 171.88,-252.62 163,-260 107.75,-305.88 87.17,-393.16 80.01,-437.95"/>
<polygon fill="black" stroke="black" points="76.55,-437.45 78.54,-447.85 83.47,-438.48 76.55,-437.45"/>
</g>
<!-- module.sg.aws_security_group.wp&#45;alb&#45;sg&#45;&gt;module.networking.aws_vpc.wp&#45;vpc -->
<g id="edge30" class="edge">
<title>module.sg.aws_security_group.wp&#45;alb&#45;sg&#45;&gt;module.networking.aws_vpc.wp&#45;vpc</title>
<path fill="none" stroke="black" d="M182.3,-193.02C175.32,-196.54 168.78,-200.81 163,-206 94.59,-267.37 80.17,-384.18 77.21,-437.81"/>
<polygon fill="black" stroke="black" points="73.71,-437.81 76.75,-447.95 80.7,-438.12 73.71,-437.81"/>
</g>
<!-- module.sg.aws_security_group.wp&#45;server&#45;sg&#45;&gt;module.networking.aws_vpc.wp&#45;vpc -->
<g id="edge31" class="edge">
<title>module.sg.aws_security_group.wp&#45;server&#45;sg&#45;&gt;module.networking.aws_vpc.wp&#45;vpc</title>
<path fill="none" stroke="black" d="M177.57,-305.1C172.46,-307.7 167.56,-310.65 163,-314 120.74,-345.01 96.14,-403.32 84.6,-438.01"/>
<polygon fill="black" stroke="black" points="81.13,-437.37 81.43,-447.96 87.8,-439.49 81.13,-437.37"/>
</g>
</g>
</svg>
